<svg width="176" height="160" viewBox="0 0 176 160" fill="none" xmlns="http://www.w3.org/2000/svg">
<g filter="url(#filter0_d_371_36687)">
<rect x="64" y="40" width="32" height="32" rx="16" fill="white" shape-rendering="crispEdges"/>
<path d="M85.6 51.6C85.6 52.2627 85.0627 52.8 84.4 52.8C83.7373 52.8 83.2 52.2627 83.2 51.6C83.2 50.9373 83.7373 50.4 84.4 50.4C85.0627 50.4 85.6 50.9373 85.6 51.6Z" fill="#141414"/>
<path fill-rule="evenodd" clip-rule="evenodd" d="M80 60C82.2091 60 84 58.2091 84 56C84 53.7909 82.2091 52 80 52C77.7909 52 76 53.7909 76 56C76 58.2091 77.7909 60 80 60ZM80 58.4C81.3255 58.4 82.4 57.3255 82.4 56C82.4 54.6745 81.3255 53.6 80 53.6C78.6745 53.6 77.6 54.6745 77.6 56C77.6 57.3255 78.6745 58.4 80 58.4Z" fill="#141414"/>
<path fill-rule="evenodd" clip-rule="evenodd" d="M72 55.68C72 52.9917 72 51.6476 72.5232 50.6208C72.9834 49.7177 73.7177 48.9834 74.6208 48.5232C75.6476 48 76.9917 48 79.68 48H80.32C83.0083 48 84.3524 48 85.3792 48.5232C86.2823 48.9834 87.0166 49.7177 87.4768 50.6208C88 51.6476 88 52.9917 88 55.68V56.32C88 59.0083 88 60.3524 87.4768 61.3792C87.0166 62.2823 86.2823 63.0166 85.3792 63.4768C84.3524 64 83.0083 64 80.32 64H79.68C76.9917 64 75.6476 64 74.6208 63.4768C73.7177 63.0166 72.9834 62.2823 72.5232 61.3792C72 60.3524 72 59.0083 72 56.32V55.68ZM79.68 49.6H80.32C81.6905 49.6 82.6222 49.6012 83.3423 49.6601C84.0438 49.7174 84.4025 49.8213 84.6528 49.9488C85.2549 50.2556 85.7444 50.7451 86.0512 51.3472C86.1787 51.5975 86.2826 51.9562 86.3399 52.6577C86.3988 53.3778 86.4 54.3095 86.4 55.68V56.32C86.4 57.6905 86.3988 58.6222 86.3399 59.3423C86.2826 60.0438 86.1787 60.4025 86.0512 60.6528C85.7444 61.2549 85.2549 61.7444 84.6528 62.0512C84.4025 62.1787 84.0438 62.2826 83.3423 62.3399C82.6222 62.3988 81.6905 62.4 80.32 62.4H79.68C78.3095 62.4 77.3778 62.3988 76.6577 62.3399C75.9562 62.2826 75.5975 62.1787 75.3472 62.0512C74.7451 61.7444 74.2556 61.2549 73.9488 60.6528C73.8213 60.4025 73.7174 60.0438 73.6601 59.3423C73.6012 58.6222 73.6 57.6905 73.6 56.32V55.68C73.6 54.3095 73.6012 53.3778 73.6601 52.6577C73.7174 51.9562 73.8213 51.5975 73.9488 51.3472C74.2556 50.7451 74.7451 50.2556 75.3472 49.9488C75.5975 49.8213 75.9562 49.7174 76.6577 49.6601C77.3778 49.6012 78.3095 49.6 79.68 49.6Z" fill="#141414"/>
</g>
<path d="M117.336 63C115.372 63 113.541 62.4273 112 61.4391C113.308 61.524 115.617 61.3207 117.054 59.9473C114.893 59.8479 113.919 58.1866 113.792 57.4767C113.975 57.5477 114.851 57.6329 115.345 57.4341C112.86 56.8093 112.478 54.6227 112.563 53.9554C113.029 54.2819 113.82 54.3955 114.131 54.3671C111.815 52.7059 112.648 50.2069 113.057 49.6673C114.719 51.9757 117.21 53.2722 120.291 53.3443C120.233 53.0888 120.203 52.8229 120.203 52.5497C120.203 50.5893 121.783 49 123.733 49C124.752 49 125.669 49.4339 126.314 50.1278C126.995 49.9679 128.019 49.5935 128.52 49.2698C128.267 50.1785 127.481 50.9366 127.006 51.2175C127.002 51.2079 127.01 51.2271 127.006 51.2175C127.424 51.1542 128.554 50.9365 129 50.6329C128.779 51.1434 127.946 51.9922 127.262 52.4674C127.389 58.0927 123.096 63 117.336 63Z" fill="#B8B8B8"/>
<path d="M156.619 49.6921C156.619 50.6267 155.809 51.3843 154.809 51.3843C153.81 51.3843 153 50.6267 153 49.6921C153 48.7576 153.81 48 154.809 48C155.809 48 156.619 48.7576 156.619 49.6921Z" fill="#B8B8B8"/>
<path d="M153.247 52.6281H156.34V62H153.247V52.6281Z" fill="#B8B8B8"/>
<path d="M161.32 52.6281H158.227V62H161.32C161.32 62 161.32 59.0496 161.32 57.2049C161.32 56.0976 161.698 54.9855 163.206 54.9855C164.911 54.9855 164.901 56.4345 164.893 57.5571C164.882 59.0244 164.907 60.5219 164.907 62H168V57.0537C167.974 53.8954 167.151 52.4401 164.443 52.4401C162.835 52.4401 161.839 53.1701 161.32 53.8305V52.6281Z" fill="#B8B8B8"/>
<defs>
<filter id="filter0_d_371_36687" x="0" y="0" width="160" height="160" filterUnits="userSpaceOnUse" color-interpolation-filters="sRGB">
<feFlood flood-opacity="0" result="BackgroundImageFix"/>
<feColorMatrix in="SourceAlpha" type="matrix" values="0 0 0 0 0 0 0 0 0 0 0 0 0 0 0 0 0 0 127 0" result="hardAlpha"/>
<feOffset dy="24"/>
<feGaussianBlur stdDeviation="32"/>
<feComposite in2="hardAlpha" operator="out"/>
<feColorMatrix type="matrix" values="0 0 0 0 0.85098 0 0 0 0 0.85098 0 0 0 0 0.85098 0 0 0 0.48 0"/>
<feBlend mode="normal" in2="BackgroundImageFix" result="effect1_dropShadow_371_36687"/>
<feBlend mode="normal" in="SourceGraphic" in2="effect1_dropShadow_371_36687" result="shape"/>
</filter>
</defs>
</svg>
